# xmcd
#
# Track frame offsets:
# 150
# 16246
# 27534
# 43482
# 57650
# 75801
# 91912
# 107672
# 123466
# 139341
# 150784
# 163772
#
# Disc length: 2449 seconds
#
#
# Revision: 0
# Processed by: cddbd v1.5.2PL0 Copyright (c) Steve Scherf et al.
# Submitted via: FreeRIP 2.96 
#
DISCID=95098f0c
DTITLE=David E. Smith - On Down The Road
DYEAR=2005
DGENRE=Bluegrass
TTITLE0=Ozark Mountain Kick
TTITLE1=County Line Drive
TTITLE2=Soul Grass
TTITLE3=Drag-n-Drop
TTITLE4=The Getaway
TTITLE5=On Down The Road (orchestral)
TTITLE6=Bossanova Banjo Thang
TTITLE7=Walkin' Shoes
TTITLE8=Banjo Stomp
TTITLE9=Bluegrass Jam
TTITLE10=Rollin' Five
TTITLE11=On Down The Road (bluegrass)
EXTD=
EXTT0=
EXTT1=
EXTT2=
EXTT3=
EXTT4=
EXTT5=
EXTT6=
EXTT7=
EXTT8=
EXTT9=
EXTT10=
EXTT11=
PLAYORDER=
